{"title":"MythBusters.S10E10.Bubble.Pack.Plunge.HDTV.x264-Sceper","uid":7327045,"size":424607033,"categoryP":"video","categoryS":"tv_shows","magnet":"?xt=urn:btih:6d568b3d6190b7ed95b6ca402b907bd07d3b7018&amp;dn=MythBusters.S10E10.Bubble.Pack.Plunge.HDTV.x264-Sceper&amp;tr=udp%3A%2F%2Ftracker.openbittorrent.com%3A80&amp;tr=udp%3A%2F%2Fopen.demonii.com%3A1337&amp;tr=udp%3A%2F%2Ftracker.coppersurfer.tk%3A6969&amp;tr=udp%3A%2F%2Fexodus.desync.com%3A6969","seeders":1,"leechers":0,"uploader":"AA82890","files":-1,"time":1338795642,"description":"MythBusters.S10E10.Bubble.Pack.Plunge.HDTV.x264-Sceper\n\nAdam and Jamie determine if a person wrapped in bubble packaging could survive a fall from a building. Also: James Bond ejector seat experiments are conducted.\n\nFormat                                   : MPEG-4\nFormat profile                           : Base Media / Version 2\nCodec ID                                 : mp42\nFile size                                : 405 MiB\nDuration                                 : 42mn 50s\nOverall bit rate mode                    : Variable\nOverall bit rate                         : 1 321 Kbps\n\nVideo\nID                                       : 2\nFormat                                   : AVC\nFormat/Info                              : Advanced Video Codec\nFormat profile                           : &lt;a class=&quot;__cf_email__&quot; href=&quot;/cdn-cgi/l/email-protection&quot; data-cfemail=&quot;e6ae8f818ea6aad5c8d7&quot;&gt;[email&amp;#160;protected]&lt;/a&gt;&lt;script cf-hash='f9e31' type=&quot;text/javascript&quot;&gt;\n/* &lt;![CDATA[ */!function(){try{var t=&quot;currentScript&quot;in document?document.currentScript:function(){for(var t=document.getElementsByTagName(&quot;script&quot;),e=t.length;e--;)if(t[e].getAttribute(&quot;cf-hash&quot;))return t[e]}();if(t&amp;&amp;t.previousSibling){var e,r,n,i,c=t.previousSibling,a=c.getAttribute(&quot;data-cfemail&quot;);if(a){for(e=&quot;&quot;,r=parseInt(a.substr(0,2),16),n=2;a.length-n;n+=2)i=parseInt(a.substr(n,2),16)^r,e+=String.fromCharCode(i);e=document.createTextNode(e),c.parentNode.replaceChild(e,c)}}}catch(u){}}();/* ]]&gt; */&lt;/script&gt;\nFormat settings, CABAC                   : Yes\nFormat settings, ReFrames                : 5 frames\nCodec ID                                 : avc1\nCodec ID/Info                            : Advanced Video Coding\nDuration                                 : 42mn 50s\nBit rate mode                            : Constant\nBit rate                                 : 1 189 Kbps\nNominal bit rate                         : 1 251 Kbps / 1 251 Kbps\nWidth                                    : 720 pixels\nHeight                                   : 404 pixels\nDisplay aspect ratio                     : 16:9\nOriginal display aspect ratio            : 16:9\nFrame rate mode                          : Constant\nFrame rate                               : 29.970 fps\nStandard                                 : NTSC\nColor space                              : YUV\nChroma subsampling                       : 4:2:0\nBit depth                                : 8 bits\nScan type                                : Progressive\nBits/(Pixel*Frame)                       : 0.136\nStream size                              : 364 MiB (90%)\nWriting library                          : x264 core 114\n\nAudio\nID                                       : 1\nFormat                                   : AAC\nFormat/Info                              : Advanced Audio Codec\nFormat profile                           : LC\nCodec ID                                 : 40\nDuration                                 : 42mn 50s\nBit rate mode                            : Variable\nBit rate                                 : 128 Kbps\nMaximum bit rate                         : 576 Kbps\nChannel(s)                               : 2 channels\nChannel positions                        : Front: L R\nSampling rate                            : 48.0 KHz\nCompression mode                         : Lossy\nStream size                              : 39.2 MiB (10%)","torrent":{"xt":"urn:btih:6d568b3d6190b7ed95b6ca402b907bd07d3b7018","amp;dn":"MythBusters.S10E10.Bubble.Pack.Plunge.HDTV.x264-Sceper","amp;tr":["udp%3A%2F%2Ftracker.openbittorrent.com%3A80","udp%3A%2F%2Fopen.demonii.com%3A1337","udp%3A%2F%2Ftracker.coppersurfer.tk%3A6969","udp%3A%2F%2Fexodus.desync.com%3A6969"],"infoHash":"6d568b3d6190b7ed95b6ca402b907bd07d3b7018","infoHashBuffer":{"type":"Buffer","data":[109,86,139,61,97,144,183,237,149,182,202,64,43,144,123,208,125,59,112,24]},"announce":[],"urlList":[]}}